<?xml version="1.0" encoding="UTF-8"?>
<svg xmlns="http://www.w3.org/2000/svg" viewBox="0 0 19.06 19.53">
    <g class="jp-icon3" fill="#616161">
    <path d="m7.06,18.25l-4.39-4.17,4.38-4.18-1.34-1.27L0,14.09l5.72,5.44,1.33-1.27Zm4.96,0l4.38-4.18-4.39-4.17,1.33-1.27,5.72,5.44-5.71,5.45-1.34-1.27h0Z"/>
    <path d="m4.06,4.82c-.29.29-.29.77,0,1.06h0c.29.29.77.29,1.06,0l3.66-3.42v9.25c0,.41.32.75.73.75h.02c.41,0,.75-.34.75-.75V2.46l3.65,3.43c.29.29.77.29,1.07,0h0c.29-.29.29-.77,0-1.06L10.24.29c-.39-.39-1.02-.39-1.41,0l-4.76,4.53Z"/>
  </g>
</svg>